<?xml version="1.0" encoding="UTF-8" standalone="no"?>
<!-- Created with Inkscape (http://www.inkscape.org/) -->
<svg id="svg2" xmlns:rdf="http://www.w3.org/1999/02/22-rdf-syntax-ns#" xmlns="http://www.w3.org/2000/svg" height="26.695mm" width="51.15mm" version="1.1" xmlns:cc="http://creativecommons.org/ns#" xmlns:dc="http://purl.org/dc/elements/1.1/" viewBox="0 0 181.23855 94.589521">
 <g id="layer1" transform="translate(-247.55 -654.37)">
  <g>
   <rect id="rect4770" opacity=".96296" stroke-linejoin="round" ry=".044598" height="143.42" width="281.07" stroke="#000" y="767.45" x="208.59" stroke-width="2.1447" fill="#303034"/>
   <rect id="rect4728" opacity=".96296" stroke-linejoin="round" ry=".042484" height="136.62" width="207.84" stroke="#000" y="944.78" x="240.92" stroke-width="1.8" fill="#303034"/>
   <path id="path4688" opacity=".96296" d="m235.57 953.25c-19.36 25.302-15.41 20.134-19.764 25.822h20.139c0.0264 0 0.0488-0.0205 0.0488-0.0469v-25.729c0-0.0264-0.0224-0.0469-0.0488-0.0469h-0.375z" fill="#bdb7b7"/>
  </g>
  <path id="path4652" opacity=".96296" d="m178.19 1028.2c-4.9411 6.4446-0.007-0.01-18.203 23.75 0 0.026 0.0158 0.049 0.036 0.049h75.934c0.0202 0 0.036-0.023 0.036-0.049v-23.701c0-0.026-0.0158-0.049-0.036-0.049h-57.767z" fill-opacity=".53459"/>
  <path id="path4690" opacity=".96296" d="m236.64 1027.4c-19.36 25.302-15.41 20.134-19.764 25.822h20.139c0.0264 0 0.0488-0.021 0.0488-0.047v-25.728c0-0.026-0.0225-0.047-0.0488-0.047h-0.375z" fill="#bdb7b7"/>
  <path id="path4684" opacity=".96296" d="m160 982.05c19.36-25.302 15.41-20.134 19.764-25.822h-20.139c-0.0264 0-0.0488 0.021-0.0488 0.047v25.728c0 0.026 0.0224 0.047 0.0488 0.047h0.375z" fill="#bdb7b7"/>
  <g>
   <path id="rect4152" opacity=".96296" d="m75.848 953.24c0.0202 0 0.03646 0.0213 0.03646 0.0476v99.145c0 0.026-0.01626 0.048-0.03646 0.048h-75.934c-0.020199-0.0005-0.036461-0.022-0.036461-0.048 75.97-99.193 0.036461 0.048 75.97-99.193z" fill-opacity=".38365"/>
   <rect id="rect4157" opacity=".96296" fill-opacity=".74214" ry=".047606" height="25.823" width="76.007" y="953.75" x="-.12270"/>
   <path id="path4650" opacity=".96296" d="m235.96 952.74c0.0202 0 0.0365 0.0213 0.0365 0.0476v99.145c0 0.026-0.0163 0.048-0.0365 0.048h-75.934c-0.0202-0.0005-0.0365-0.022-0.0365-0.048 75.97-99.193 0.0365 0.048 75.97-99.193z" fill-opacity=".38365"/>
   <path id="rect4654" opacity=".96296" d="m235.95 956.02c0.0235 0 0.0425 0.019 0.0425 0.0425v22.96c0 0.0235-0.019 0.0425-0.0425 0.0425h-75.922c-0.0235 0-0.058-0.0247-0.0425-0.0425l20-22.96c-33.34-0.0949 47.437-0.0425 55.964-0.0425z" fill-opacity=".74214"/>
   <rect id="rect4658" opacity=".96296" fill-opacity=".74214" ry=".047606" height="25.823" width="76.007" y="1027.8" x="-.12270"/>
  </g>
  <path id="path4660" d="m77.366 953.62-75.257 99.78" stroke-opacity=".71373" stroke="#000" stroke-width="3.9" fill="none"/>
  <path id="path4664" d="m234.89 955.58h-75.067l0.5055 23.598h55.858" stroke="#000" stroke-width="1.6121" fill="none"/>
  <path id="path4670" opacity=".96296" d="m236.11 953.6c-19.36 25.302-15.41 20.134-19.764 25.822h20.139c0.0264 0 0.0488-0.0205 0.0488-0.0469v-25.729c0-0.0264-0.0225-0.0469-0.0488-0.0469h-0.375z" fill="#bdb7b7"/>
  <path id="path4656" d="m235.11 955.39-75.004 97.985" stroke="#000" stroke-width="1.8" fill="none"/>
  <g fill="#bdb7b7">
   <path id="path4680" opacity=".96296" d="m160 1052.1c19.36-25.302 15.41-20.134 19.764-25.822h-20.139c-0.0264 0-0.0488 0.021-0.0488 0.047v25.728c0 0.026 0.0224 0.047 0.0488 0.047h0.375z"/>
   <path id="path4682" opacity=".96296" d="m160 1052.1c19.36-25.302 15.41-20.134 19.764-25.822h-20.139c-0.0264 0-0.0488 0.021-0.0488 0.047v25.728c0 0.026 0.0224 0.047 0.0488 0.047h0.375z"/>
   <path id="path4692" opacity=".96296" d="m236.28 1028.1c-19.36 25.302-15.41 20.134-19.764 25.822h20.139c0.0264 0 0.0488-0.02 0.0488-0.047v-25.728c0-0.026-0.0225-0.047-0.0488-0.047h-0.375z"/>
  </g>
  <path id="path4668" d="m161.37 1052.1h73.994l1.0102-23.739-56.821-0.2526" stroke="#000" stroke-width="1.8" fill="none"/>
  <path id="path4694" opacity=".96296" d="m324.5 953.42c-19.36 25.302-15.41 20.134-19.764 25.822h20.139c0.0264 0 0.0488-0.0205 0.0488-0.0469v-25.729c0-0.0264-0.0224-0.0469-0.0488-0.0469h-0.375z" fill="#bdb7b7"/>
  <path id="path4696" opacity=".96296" d="m267.12 1028.4c-4.9411 6.4446-0.007-0.01-18.203 23.75 0 0.026 0.0158 0.049 0.036 0.049h75.934c0.0202 0 0.036-0.023 0.036-0.049v-23.701c0-0.026-0.0158-0.049-0.036-0.049h-57.767z" fill-opacity=".53459"/>
  <path id="path4698" opacity=".96296" d="m325.57 1027.5c-19.36 25.302-15.41 20.134-19.764 25.822h20.139c0.0264 0 0.0488-0.021 0.0488-0.047v-25.728c0-0.026-0.0225-0.047-0.0488-0.047h-0.375z" fill="#bdb7b7"/>
  <path id="path4700" opacity=".96296" d="m248.93 982.23c19.36-25.302 15.41-20.134 19.764-25.822h-20.139c-0.0264 0-0.0488 0.021-0.0488 0.047v25.728c0 0.026 0.0224 0.047 0.0488 0.047h0.375z" fill="#bdb7b7"/>
  <path id="path4702" opacity=".96296" d="m324.89 952.92c0.0202 0 0.0365 0.0213 0.0365 0.0476v99.145c0 0.026-0.0163 0.048-0.0365 0.048h-75.934c-0.0202-0.0005-0.0365-0.022-0.0365-0.048 75.97-99.193 0.0365 0.048 75.97-99.193z" fill-opacity=".38365"/>
  <path id="path4704" opacity=".96296" d="m324.88 956.2c0.0235 0 0.0425 0.019 0.0425 0.0425v22.96c0 0.0235-0.019 0.0425-0.0425 0.0425h-75.922c-0.0235 0-0.058-0.0247-0.0425-0.0425l20-22.96c-33.34-0.0949 47.437-0.0425 55.964-0.0425z" fill-opacity=".74214"/>
  <path id="path4706" d="m323.82 955.76h-75.067l0.5055 23.598h55.858" stroke="#000" stroke-width="1.6121" fill="none"/>
  <path id="path4708" opacity=".96296" d="m325.03 953.78c-19.36 25.302-15.41 20.134-19.764 25.822h20.139c0.0264 0 0.0488-0.0205 0.0488-0.0469v-25.729c0-0.0264-0.0225-0.0469-0.0488-0.0469h-0.375z" fill="#bdb7b7"/>
  <path id="path4710" d="m324.04 955.57-75.004 97.985" stroke="#000" stroke-width="1.8" fill="none"/>
  <g fill="#bdb7b7">
   <path id="path4712" opacity=".96296" d="m248.93 1052.2c19.36-25.302 15.41-20.134 19.764-25.822h-20.139c-0.0264 0-0.0488 0.021-0.0488 0.047v25.728c0 0.026 0.0224 0.047 0.0488 0.047h0.375z"/>
   <path id="path4714" opacity=".96296" d="m248.93 1052.2c19.36-25.302 15.41-20.134 19.764-25.822h-20.139c-0.0264 0-0.0488 0.021-0.0488 0.047v25.728c0 0.026 0.0224 0.047 0.0488 0.047h0.375z"/>
   <path id="path4716" opacity=".96296" d="m325.21 1028.2c-19.36 25.302-15.41 20.134-19.764 25.822h20.139c0.0264 0 0.0488-0.02 0.0488-0.047v-25.728c0-0.026-0.0225-0.047-0.0488-0.047h-0.375z"/>
  </g>
  <path id="path4718" d="m250.3 1052.3h73.994l1.0102-23.739-56.821-0.2526" stroke="#000" stroke-width="1.8" fill="none"/>
  <text id="text4720" style="word-spacing:0px;letter-spacing:0px" xml:space="preserve" font-size="1.25px" y="1051.8265" x="328.39285" font-family="Sans" line-height="125%" fill="#000000"><tspan id="tspan4722" x="328.39285" y="1051.8265">ibit</tspan></text>
  <text id="text4724" style="word-spacing:0px;letter-spacing:0px" font-weight="500" fill-opacity=".69412" xml:space="preserve" transform="scale(.86832 1.1517)" line-height="125%" font-size="80.616px" y="913.13873" x="381.23291" font-family="KacstBook" fill="#ffffff"><tspan id="tspan4726" x="381.23291" y="913.13873">ibit</tspan></text>
  <rect id="rect4730" opacity=".96296" stroke-linejoin="round" ry=".042484" height="136.62" width="207.84" stroke="#000" y="780.14" x="226.64" stroke-width="1.8" fill="#303034"/>
  <path id="path4732" opacity=".96296" d="m319.5 789.14c-19.36 25.302-15.41 20.134-19.764 25.822h20.139c0.0264 0 0.0488-0.0205 0.0488-0.0469v-25.729c0-0.0264-0.0224-0.0469-0.0488-0.0469h-0.375z" fill="#bdb7b7"/>
  <path id="path4734" opacity=".96296" d="m262.12 866.93c-4.9411 5.6709-0.007-0.009-18.203 20.899 0 0.0229 0.0158 0.0431 0.036 0.0431h75.934c0.0202 0 0.036-0.0202 0.036-0.0431v-20.856c0-0.0229-0.0158-0.0431-0.036-0.0431h-57.767z" fill-opacity=".53459" fill="#00f"/>
  <g>
   <path id="path4736" opacity=".96296" d="m203.07 879.32c-19.36 25.302-15.41 20.134-19.764 25.822h20.139c0.0264 0 0.0488-0.021 0.0488-0.047v-25.728c0-0.026-0.0225-0.047-0.0488-0.047h-0.375z" fill="#bdb7b7"/>
   <path id="path4738" opacity=".96296" d="m182.13 824.73c19.017-19.703 15.138-15.679 19.414-20.108h-19.782c-0.0259 0-0.0479 0.0163-0.0479 0.0366v20.035c0 0.0203 0.022 0.0366 0.0479 0.0366h0.36837z" fill="#bdb7b7"/>
   <rect id="rect4780" ry=".042521" height="21.705" width="74.205" y="867.58" x="244.15" stroke-width="0" fill="#fff"/>
  </g>
  <path id="path4740" opacity=".96296" d="m319.53 788.28c0.0202 0 0.0365 0.0213 0.0365 0.0476v99.145c0 0.026-0.0163 0.048-0.0365 0.048h-75.934c-0.0202-0.0005-0.0365-0.022-0.0365-0.048 75.97-99.193 0.0365 0.048 75.97-99.193z" fill-opacity=".38365" fill="#40a"/>
  <path id="path4742" opacity=".96296" d="m320.59 791.2c0.0235 0 0.0425 0.019 0.0425 0.0425v22.96c0 0.0235-0.019 0.0425-0.0425 0.0425h-75.922c-0.0235 0-0.058-0.0247-0.0425-0.0425l20-22.96c-33.34-0.0949 47.437-0.0425 55.964-0.0425z" fill-opacity=".74214"/>
  <rect id="rect4790" ry=".036224" height="18.49" width="74.205" y="792.22" x="244.5" stroke-width="0" fill="#fff"/>
  <path id="path4744" d="m318.88 791.38h-75.181l0.50627 19.155h55.943" stroke="#000" stroke-width="1.4535" fill="none"/>
  <g fill="#bdb7b7">
   <path id="path4746" opacity=".96296" d="m320.03 789.5c-19.36 25.302-15.41 20.134-19.764 25.822h20.139c0.0264 0 0.0488-0.0205 0.0488-0.0469v-25.729c0-0.0264-0.0225-0.0469-0.0488-0.0469h-0.375z"/>
   <path id="path4750" opacity=".96296" d="m174.64 869.73c19.36-25.302 15.41-20.134 19.764-25.822h-20.139c-0.0264 0-0.0488 0.021-0.0488 0.047v25.728c0 0.026 0.0224 0.047 0.0488 0.047h0.375z"/>
   <path id="path4754" opacity=".96296" d="m207 849.67c-19.36 22.853-15.41 18.185-19.764 23.322h20.139c0.0264 0 0.0488-0.0181 0.0488-0.0425v-23.238c0-0.0235-0.0225-0.0425-0.0488-0.0425h-0.375z"/>
  </g>
  <path id="path4756" d="m244.19 888.77h75.131l-0.0601-21.362-56.872-0.22731" stroke="#000" stroke-width="1.7083" fill="none"/>
  <text id="text4758" style="word-spacing:0px;letter-spacing:0px" line-height="125%" font-size="1.25px" y="887.54083" x="323.39285" font-family="Sans" xml:space="preserve" fill="#000000"><tspan id="tspan4760" y="887.54083" x="323.39285">ibit</tspan></text>
  <text id="text4762" style="word-spacing:0px;letter-spacing:0px" font-weight="500" fill-opacity=".69412" transform="scale(.86832 1.1517)" xml:space="preserve" line-height="125%" font-size="80.616px" y="770.48682" x="375.47464" font-family="KacstBook" fill="#ffffff"><tspan id="tspan4764" y="770.48682" x="375.47464">ibit</tspan></text>
  <rect id="rect4774" opacity=".96296" stroke-linejoin="round" ry=".044779" height="144" width="148.79" stroke="#000" y="452.88" x="234.73" stroke-width="1.5636" fill="#303034"/>
  <g fill="#fff">
   <rect id="rect4776" stroke-linejoin="round" stroke-opacity=".90196" ry=".044779" height="8.2143" width="71.429" stroke="#fff" y="474.15" x="274.64" stroke-width="2.564"/>
   <rect id="rect4778" stroke-linejoin="round" stroke-opacity=".90196" ry=".044779" height="8.2143" width="71.429" stroke="#fff" y="560.58" x="274.29" stroke-width="2.564"/>
   <path id="path4748" d="m320.11 790.57-75 97.98" fill-rule="evenodd" stroke="#000" stroke-width="1.8"/>
  </g>
  <g fill="#000080">
   <path id="path4786" opacity=".96296" d="m243.86 888.66c16.617-21.537 12.957-16.793 16.617-21.537h-16.932c-0.0222 0-0.041 0.0175-0.041 0.0391v21.458c0 0.0217 0.0188 0.0392 0.041 0.0392l4.0106-0.71429z"/>
   <path id="path4792" opacity=".96296" d="m243.86 888.66c16.617-21.537 12.957-16.793 16.617-21.537h-16.932c-0.0222 0-0.041 0.0175-0.041 0.0391v21.458c0 0.0217 0.0188 0.0392 0.041 0.0392l4.0106-0.71429z"/>
   <path id="path4794" opacity=".96296" d="m243.5 887.59c16.617-21.537 12.957-16.793 16.617-21.537h-16.932c-0.0222 0-0.041 0.0175-0.041 0.0391v21.458c0 0.0217 0.0188 0.0392 0.041 0.0392l4.0106-0.71429z"/>
   <path id="path4796" opacity=".96296" d="m218.15 859.37c16.617-21.537 12.957-16.793 16.617-21.537h-16.932c-0.0222 0-0.041 0.0175-0.041 0.0391v21.458c0 0.0217 0.0188 0.0392 0.041 0.0392l4.0106-0.71429z"/>
  </g>
  <g>
   <g stroke-width="0">
    <path id="rect4801" d="m249.72 654.37h74.151c0.0324 0 0.0763 0.0307 0.0584 0.057l-12.293 18.1c-0.0179 0.0263 2.0228 0.057 1.9904 0.057h-63.907c-0.0324 0-0.0584-0.0254-0.0584-0.057v-18.1c0-0.0316 0.026-0.057 0.0584-0.057z" fill="#6f84ff"/>
    <path id="rect4803" d="m654.48-323.76 92.336 54c0.0273 0.016 0.057 0.0254 0.057 0.057v22.1c0 0.0316-0.0297 0.0729-0.057 0.057l-92.336-54c-0.0273-0.0159-0.057-0.0254-0.057-0.057v-22.1c0-0.0316 0.0297-0.0729 0.057-0.057z" transform="rotate(90)" fill="#ffff2d"/>
    <path id="rect4806" d="m301.61 654.42c-0.0316 0-0.0407 0.0293-0.0566 0.0566l-10.291 17.596h22.213l10.291-17.596c0.0159-0.0273-0.025-0.0566-0.0566-0.0566z" fill="#0f0"/>
    <path id="path4813" d="m322.36 748.09h-70.873c-0.0309 0-0.0729-0.0307-0.0558-0.057l11.749-18.1c0.0171-0.0263-1.9333-0.057-1.9024-0.057h61.082c0.0309 0 0.0558 0.0254 0.0558 0.057v18.1c0 0.0316-0.0249 0.057-0.0558 0.057z" fill="#6f84ff"/>
    <path id="path4815" d="m269.75 747.53c0.0316 0 0.0407-0.0293 0.0566-0.0566l10.291-17.596h-22.213l-10.291 17.596c-0.0159 0.0273 0.025 0.0566 0.0566 0.0566h22.1z" fill="#0f0"/>
    <rect id="rect4821" ry=".044691" height="9.849" width="14.9" y="784.67" x="353.3" fill="#eee"/>
   </g>
   <text id="text4823" style="word-spacing:0px;letter-spacing:0px" xml:space="preserve" font-size="70px" line-height="125%" y="747.69672" x="305.73663" font-family="Laksaman" fill="#eeeeee"><tspan id="tspan4825" font-size="90px" y="747.69672" x="305.73663">ibit</tspan></text>
  </g>
 </g>
</svg>
